<?xml version="1.0" encoding="UTF-8" standalone="no"?>
<svg
   xmlns:dc="http://purl.org/dc/elements/1.1/"
   xmlns:cc="http://creativecommons.org/ns#"
   xmlns:rdf="http://www.w3.org/1999/02/22-rdf-syntax-ns#"
   xmlns:svg="http://www.w3.org/2000/svg"
   xmlns="http://www.w3.org/2000/svg"
   xmlns:xlink="http://www.w3.org/1999/xlink"
   width="83.07917mm"
   height="88.635414mm"
   viewBox="0 0 83.07917 88.635414"
   version="1.1"
   id="svg8">
  <defs
     id="defs2">
    <linearGradient
       id="linearGradient5576">
      <stop
         style="stop-color:#000080;stop-opacity:1;"
         offset="0"
         id="stop5572" />
      <stop
         style="stop-color:#1e4cc9;stop-opacity:1"
         offset="1"
         id="stop5574" />
    </linearGradient>
    <linearGradient
       id="linearGradient5487">
      <stop
         style="stop-color:#2472ff;stop-opacity:1;"
         offset="0"
         id="stop5483" />
      <stop
         style="stop-color:#2472ff;stop-opacity:0;"
         offset="1"
         id="stop5485" />
    </linearGradient>
    <linearGradient
       xlink:href="#linearGradient5487"
       id="linearGradient5493"
       x1="66.675003"
       y1="145.79063"
       x2="149.75417"
       y2="145.79063"
       gradientUnits="userSpaceOnUse" />
    <linearGradient
       xlink:href="#linearGradient5576"
       id="linearGradient5578"
       x1="67.137939"
       y1="127.02175"
       x2="87.982193"
       y2="127.02175"
       gradientUnits="userSpaceOnUse"
       spreadMethod="pad" />
    <linearGradient
       xlink:href="#linearGradient5576"
       id="linearGradient5598"
       x1="67.142723"
       y1="145.85365"
       x2="119.72633"
       y2="145.85365"
       gradientUnits="userSpaceOnUse" />
    <linearGradient
       xlink:href="#linearGradient5576"
       id="linearGradient5629"
       x1="98.924149"
       y1="145.81784"
       x2="149.22501"
       y2="145.81784"
       gradientUnits="userSpaceOnUse"
       gradientTransform="matrix(3.7795276,0,0,3.7795276,-251.41423,-383.5197)" />
    <linearGradient
       xlink:href="#linearGradient5576"
       id="linearGradient5645"
       x1="130.96866"
       y1="163.91458"
       x2="148.62965"
       y2="164.24532"
       gradientUnits="userSpaceOnUse"
       gradientTransform="matrix(3.7795276,0,0,3.7795276,-251.41423,-383.5197)" />
  </defs>
  <metadata
     id="metadata5">
    <rdf:RDF>
      <cc:Work
         rdf:about="">
        <dc:format>image/svg+xml</dc:format>
        <dc:type
           rdf:resource="http://purl.org/dc/dcmitype/StillImage" />
        <dc:title></dc:title>
      </cc:Work>
    </rdf:RDF>
  </metadata>
  <g
     id="layer1"
     transform="translate(-66.675003,-101.47292)"
     style="display:inline;fill:#fffffc;fill-opacity:1">
    <path
       style="fill:#fffffc;stroke:none;stroke-width:0.26458332px;stroke-linecap:butt;stroke-linejoin:miter;stroke-opacity:1;fill-opacity:1"
       d="m 67.142725,103.90723 v 22.73128 l 20.860386,23.47962 -0.01261,-20.07848 -20.847773,-26.13242 z"
       id="path5525" />
    <path
       style="fill:#fffffc;fill-opacity:1;stroke:none;stroke-width:0.26458332px;stroke-linecap:butt;stroke-linejoin:miter;stroke-opacity:1"
       d="m 67.138024,103.83763 0.0041,22.76657 20.840071,23.60166 -0.0084,-19.99513 -20.835855,-26.3731 z"
       id="path5560"
       transform="translate(0.15498898)" />
    <path
       style="fill:#fffffc;fill-opacity:1;stroke:none;stroke-width:0.26458332px;stroke-linecap:butt;stroke-linejoin:miter;stroke-opacity:1"
       d="m 67.142725,141.83946 0.02339,20.39266 19.683371,23.34523 c 0.335053,0.37734 0.713101,0.71647 1.124479,1.00872 0.175849,0.12493 0.357799,0.24134 0.545703,0.34727 0.245008,0.13812 0.499944,0.25832 0.760677,0.3638 0.317027,0.12825 0.642988,0.23488 0.975651,0.31419 0.391585,0.0934 0.791158,0.14863 1.190625,0.19844 0.477492,0.0595 0.961474,0.11145 1.438672,0.0496 0.439577,-0.057 0.863037,-0.20982 1.256771,-0.41341 0.765273,-0.3957 1.427665,-0.98835 1.905716,-1.70507 0.47805,-0.71672 0.770731,-1.55597 0.842048,-2.41453 l -0.02339,-50.75949 c 0.309949,-1.24014 1.17026,-2.3319 2.303528,-2.92326 0.280792,-0.14652 0.578374,-0.26396 0.888674,-0.32741 0.51445,-0.1052 1.06162,-0.0566 1.54348,0.15201 0.51943,0.22491 0.94311,0.6202 1.35387,1.00965 5.94695,5.63842 11.55083,11.63864 16.77034,17.95646 l -0.002,-19.84162 -20.802861,-22.91953 c -0.963408,-0.83457 -2.132109,-1.43038 -3.373438,-1.71979 -0.357879,-0.0834 -0.724057,-0.142 -1.091406,-0.13229 -0.521634,0.0138 -1.037324,0.16739 -1.488281,0.42994 -0.645937,0.37606 -1.146253,0.96136 -1.554427,1.5875 -0.703482,1.07914 -1.168527,2.31282 -1.352458,3.58781 l 0.07016,49.48495 c -0.03065,0.8308 -0.443935,1.63979 -1.099146,2.15152 -0.745363,0.58214 -1.764975,0.76099 -2.689399,0.56127 -0.52156,-0.11268 -1.013989,-0.3365 -1.473324,-0.60804 -0.655204,-0.38733 -1.22029,-0.90859 -1.73057,-1.47333 L 67.143099,141.83945 Z"
       id="path5580"
       transform="translate(0.15498898)" />
    <path
       id="path5619"
       transform="matrix(0.26458333,0,0,0.26458333,66.675003,101.47292)"
       style="fill:#fffffc;fill-opacity:1;stroke:none;stroke-width:0.99999994px;stroke-linecap:butt;stroke-linejoin:miter;stroke-opacity:1"
       d="m 224.42383,9.1582031 c -1.20039,-0.015172 -2.40167,0.058134 -3.57422,0.3066407 -3.2116,0.6806562 -6.05902,2.6682512 -8.13086,5.2148442 -1.69389,2.082037 -2.91363,4.549519 -3.53711,7.160156 V 216.64844 c -0.28032,2.10762 -1.18131,4.12767 -2.5625,5.74414 -1.67561,1.96104 -4.02998,3.30065 -6.54102,3.89062 -2.80169,0.65827 -5.79351,0.40169 -8.48437,-0.61914 -2.12557,-0.80637 -4.07256,-2.08377 -5.6582,-3.71289 l -63.37305,-71.68359 -0.0898,77.95898 71.32812,84.32227 c 3.39688,4.41036 7.74402,8.08567 12.6582,10.70117 1.63578,0.87062 3.33996,1.62763 5.125,2.125 5.45661,1.52039 11.57979,0.43017 16.17579,-2.88086 4.59599,-3.31103 7.56975,-8.77439 7.85546,-14.43164 l -0.0293,-189.1875 c 0.38486,-2.45587 1.10174,-4.85952 2.125,-7.125 0.54995,-1.21758 1.19956,-2.41141 2.125,-3.375 1.08517,-1.12991 2.50884,-1.89465 4,-2.375 2.50748,-0.80775 5.25871,-0.83886 7.7832,-0.0859 2.52449,0.75292 4.81142,2.28664 6.4668,4.33594 l 54.5,64.65625 V 94.8125 C 290.2073,69.204424 267.64091,43.758946 244.89062,18.480469 c -1.04598,-1.162223 -2.09455,-2.32579 -3.26953,-3.357422 -2.13533,-1.874826 -4.66162,-3.283583 -7.33593,-4.244141 -2.77779,-0.9977209 -5.71489,-1.5183526 -8.66211,-1.6777341 -0.39895,-0.021574 -0.79909,-0.037911 -1.19922,-0.042969 z" />
    <path
       id="path5635"
       transform="matrix(0.26458333,0,0,0.26458333,66.675003,101.47292)"
       style="fill:#fffffc;fill-opacity:1;stroke:none;stroke-width:0.99999994px;stroke-linecap:butt;stroke-linejoin:miter;stroke-opacity:1"
       d="m 243.08594,153.125 -0.0884,80.95819 69.58839,92.16681 0,-88.5 z" />
  </g>
</svg>
